<?xml version="1.0" encoding="utf-8"?>
<!-- Generator: Adobe Illustrator 25.0.1, SVG Export Plug-In . SVG Version: 6.00 Build 0)  -->
<svg version="1.1" id="Logo_design" xmlns="http://www.w3.org/2000/svg" xmlns:xlink="http://www.w3.org/1999/xlink" x="0px"
	 y="0px" viewBox="0 0 340.2 425.2" style="enable-background:new 0 0 340.2 425.2;" xml:space="preserve">
<style type="text/css">
	.st0{fill:#323232;}
	.st1{fill:#6E001E;}
	.st2{fill:#00BEE6;}
	.st3{fill:#FABE3C;}
	.st4{fill:#004650;}
	.st5{fill:#FF413C;}
	.st6{fill:#282864;}
	.st7{fill:#00D2C8;}
	.st8{fill:#A6A6A5;}
	.st9{fill:#6E0069;}
	.st10{fill:#FFFFFF;}
</style>
<g>
	<g>
		<g>
			<polygon class="st0" points="111,311.9 101.7,322.5 92.4,311.9 85.3,311.9 85.3,340 93.9,340 93.9,325.3 101.7,334 109.4,325.3 
				109.4,340 118.1,340 118.1,311.9 			"/>
		</g>
		<path class="st0" d="M141.1,311.5c8.9,0,15,5.9,15,14.4c0,8.5-6.1,14.4-15,14.4c-8.9,0-15.1-5.9-15.1-14.5
			C126,317.4,132.1,311.5,141.1,311.5z M141.1,332.5c3.5,0,5.9-2.7,5.9-6.6c0-3.8-2.4-6.5-5.9-6.5c-3.6,0-6,2.6-6,6.5
			C135,329.9,137.4,332.5,141.1,332.5z"/>
		<path class="st0" d="M183.2,340h-12.3l-9.7-28h9.9l5.9,19.6l5.8-19.6h9.9L183.2,340z"/>
		<path class="st0" d="M222.6,340h-22.1v-28h22v7.1h-13.1v3.3h11.9v7h-11.9v3.7h13.1V340z"/>
		<path class="st0" d="M230.3,333.6l13.5-14.6h-13v-7H255v6.6l-13.3,14.1h13.7v7.3h-25V333.6z"/>
	</g>
	<g>
		<path class="st0" d="M102.1,368.5h-1.8l-13.3-16.2v16.2h-1.6v-18.4h1.8l13.3,16.2v-16.2h1.6V368.5z"/>
		<path class="st0" d="M113.3,368.5v-18.4h13.1v1.5h-11.4v6.8h10v1.5h-10v7.3h11.7v1.5H113.3z"/>
		<path class="st0" d="M141.8,351.6v16.9h-1.6v-16.9h-6.3v-1.5h14.2v1.5H141.8z"/>
		<path class="st0" d="M154.4,350.1h1.7l5.1,16.4l5.5-16.4h1.7l5.5,16.4l5.1-16.4h1.7l-5.8,18.4h-2l-5.5-16.4l-5.4,16.4h-2
			L154.4,350.1z"/>
		<path class="st0" d="M197.8,349.8c5.6,0,9.8,4,9.8,9.6c0,5.5-4.2,9.4-9.8,9.4c-5.5,0-9.7-3.9-9.7-9.4
			C188.2,353.8,192.3,349.8,197.8,349.8z M197.8,367.3c4.7,0,8.1-3.3,8.1-7.9c0-4.7-3.4-8.1-8.1-8.1c-4.6,0-8,3.4-8,8.1
			C189.8,364,193.2,367.3,197.8,367.3z"/>
		<path class="st0" d="M219,362.6v5.9h-1.6v-18.4h7.9c3.5,0,6.4,2,6.4,6.3c0,3.1-1.8,5.2-4.3,5.9l5.1,6.2h-2.1l-4.8-5.9
			c-0.1,0-0.2,0-0.3,0H219z M219,361.1h6.3c2.6,0,4.8-1.8,4.8-4.7c0-3.3-2.2-4.8-4.8-4.8H219V361.1z"/>
		<path class="st0" d="M249.6,359.6l6.8,8.9h-2.1l-6.2-8.1h-4.9v8.1h-1.6v-18.4h1.6v8.8h4.9l5.2-8.8h1.9L249.6,359.6z"/>
	</g>
</g>
<path class="st7" d="M275.2,133.4l-20-20l-28.3,28.3v-28.3h-28.3L226.8,85l-20-20l-36.6,36.6L133.4,65l-20,20l28.3,28.3h-28.3v28.3
	L85,113.4l-20,20l36.6,36.6L65,206.7l20,20l28.3-28.3v28.3h28.3l-28.3,28.3l20,20l36.6-36.6l36.6,36.6l20-20l-28.3-28.3h28.3v-28.3
	l28.3,28.3l20-20l-36.6-36.6L275.2,133.4z M141.7,141.7h56.7v56.7h-56.7V141.7z"/>
</svg>
